<svg width="100" height="32" viewBox="0 0 100 32" fill="none" xmlns="http://www.w3.org/2000/svg">
<rect width="100" height="32" fill="#E5E5E5"/>
<g clip-path="url(#clip0_891_3857)">
<rect width="1280" height="1697" transform="translate(-1110 -21)" fill="white"/>
<rect x="-1110" y="-21" width="1280" height="74" fill="white"/>
<g filter="url(#filter0_d_891_3857)">
<rect width="100" height="32" rx="16" fill="white"/>
</g>
<path d="M12.8374 20.5H11.3232L14.7255 11.0455H16.3736L19.7759 20.5H18.2617L15.5888 12.7628H15.5149L12.8374 20.5ZM13.0913 16.7976H18.0032V17.9979H13.0913V16.7976ZM21.0305 20.5V13.4091H22.4108V16.3821H23.0756L25.4161 13.4091H27.1242L24.3774 16.8576L27.1565 20.5H25.4438L23.3064 17.6655H22.4108V20.5H21.0305ZM28.2287 20.5V13.4091H29.609V16.3821H30.2738L32.6143 13.4091H34.3224L31.5756 16.8576L34.3548 20.5H32.642L30.5046 17.6655H29.609V20.5H28.2287ZM37.4905 20.657C37.0412 20.657 36.6349 20.5739 36.2718 20.4077C35.9086 20.2384 35.6208 19.9937 35.4085 19.6737C35.1992 19.3536 35.0945 18.9612 35.0945 18.4964C35.0945 18.0964 35.1715 17.767 35.3254 17.5085C35.4793 17.25 35.687 17.0453 35.9486 16.8945C36.2102 16.7437 36.5026 16.6299 36.8257 16.5529C37.1489 16.476 37.4782 16.4175 37.8137 16.3775C38.2384 16.3282 38.5831 16.2882 38.8477 16.2575C39.1124 16.2236 39.3048 16.1697 39.4248 16.0959C39.5448 16.022 39.6048 15.902 39.6048 15.7358V15.7035C39.6048 15.3003 39.491 14.9879 39.2632 14.7663C39.0386 14.5447 38.7031 14.4339 38.2568 14.4339C37.7921 14.4339 37.4259 14.537 37.1581 14.7433C36.8934 14.9464 36.7103 15.1726 36.6088 15.4219L35.3115 15.1264C35.4654 14.6955 35.6901 14.3478 35.9855 14.0831C36.2841 13.8153 36.6272 13.6214 37.015 13.5014C37.4028 13.3783 37.8106 13.3168 38.2384 13.3168C38.5215 13.3168 38.8216 13.3506 39.1386 13.4183C39.4587 13.483 39.7572 13.603 40.0342 13.7784C40.3142 13.9538 40.5435 14.2047 40.722 14.5309C40.9005 14.854 40.9898 15.2741 40.9898 15.7912V20.5H39.6418V19.5305H39.5864C39.4971 19.709 39.3633 19.8845 39.1847 20.0568C39.0062 20.2292 38.777 20.3723 38.4969 20.4862C38.2168 20.6 37.8814 20.657 37.4905 20.657ZM37.7906 19.549C38.1722 19.549 38.4984 19.4736 38.7693 19.3228C39.0432 19.172 39.2509 18.975 39.3925 18.7319C39.5371 18.4857 39.6095 18.2225 39.6095 17.9425V17.0284C39.5602 17.0777 39.4648 17.1238 39.3232 17.1669C39.1847 17.2069 39.0262 17.2423 38.8477 17.2731C38.6692 17.3008 38.4954 17.3269 38.3261 17.3516C38.1568 17.3731 38.0152 17.3916 37.9014 17.407C37.6336 17.4408 37.3889 17.4978 37.1673 17.5778C36.9488 17.6578 36.7734 17.7732 36.6411 17.924C36.5118 18.0717 36.4472 18.2687 36.4472 18.5149C36.4472 18.8565 36.5734 19.1151 36.8257 19.2905C37.0781 19.4628 37.3997 19.549 37.7906 19.549ZM43.4469 23.1591C43.2407 23.1591 43.053 23.1422 42.8837 23.1083C42.7144 23.0775 42.5882 23.0437 42.5051 23.0067L42.8375 21.8757C43.0899 21.9434 43.3146 21.9727 43.5115 21.9634C43.7085 21.9542 43.8824 21.8803 44.0332 21.7418C44.1871 21.6033 44.3225 21.3771 44.4395 21.0632L44.6103 20.5923L42.0158 13.4091H43.4931L45.2889 18.9119H45.3627L47.1586 13.4091H48.6404L45.7182 21.4464C45.5828 21.8157 45.4105 22.1281 45.2012 22.3835C44.9919 22.642 44.7426 22.8359 44.4533 22.9652C44.164 23.0945 43.8285 23.1591 43.4469 23.1591ZM54.7434 16.359V17.5547H50.9025V16.359H54.7434ZM51.2903 13.4091V20.5H49.9377V13.4091H51.2903ZM55.7083 13.4091V20.5H54.3603V13.4091H55.7083ZM56.6754 14.6001V13.4091H62.6584V14.6001H60.3455V20.5H58.9975V14.6001H56.6754Z" fill="black"/>
<rect x="71" y="3" width="26" height="26" rx="13" fill="#F9F9F9"/>
<path fill-rule="evenodd" clip-rule="evenodd" d="M85.4299 17.9678C86.7917 17.4057 87.7501 16.0648 87.7501 14.5C87.7501 12.4289 86.0712 10.75 84.0001 10.75C81.929 10.75 80.2501 12.4289 80.2501 14.5C80.2501 16.0647 81.2085 17.4056 82.5702 17.9677C81.1756 18.1999 79.8926 18.7659 78.8083 19.5806L80.1899 21.4194C81.2512 20.6221 82.5687 20.15 83.9999 20.15C85.431 20.15 86.7485 20.6221 87.8098 21.4194L89.1914 19.5806C88.1072 18.766 86.8244 18.2 85.4299 17.9678Z" fill="black"/>
</g>
<defs>
<filter id="filter0_d_891_3857" x="-14" y="-11" width="128" height="60" filterUnits="userSpaceOnUse" color-interpolation-filters="sRGB">
<feFlood flood-opacity="0" result="BackgroundImageFix"/>
<feColorMatrix in="SourceAlpha" type="matrix" values="0 0 0 0 0 0 0 0 0 0 0 0 0 0 0 0 0 0 127 0" result="hardAlpha"/>
<feOffset dy="3"/>
<feGaussianBlur stdDeviation="7"/>
<feColorMatrix type="matrix" values="0 0 0 0 0 0 0 0 0 0 0 0 0 0 0 0 0 0 0.08 0"/>
<feBlend mode="normal" in2="BackgroundImageFix" result="effect1_dropShadow_891_3857"/>
<feBlend mode="normal" in="SourceGraphic" in2="effect1_dropShadow_891_3857" result="shape"/>
</filter>
<clipPath id="clip0_891_3857">
<rect width="1280" height="1697" fill="white" transform="translate(-1110 -21)"/>
</clipPath>
</defs>
</svg>
