<svg width="80" height="34" viewBox="0 0 80 34" fill="none" xmlns="http://www.w3.org/2000/svg">
<rect width="80" height="34" rx="17" fill="black"/>
<path fill-rule="evenodd" clip-rule="evenodd" d="M41.7927 18.2638C40.3608 19.6957 38.0391 19.6957 36.6072 18.2638C35.1753 16.8319 35.1753 14.5103 36.6072 13.0783C38.0391 11.6464 40.3608 11.6464 41.7927 13.0783C43.2246 14.5103 43.2246 16.8319 41.7927 18.2638ZM42.2331 19.6468C40.2728 21.1462 37.4572 20.9994 35.6644 19.2066C33.7118 17.254 33.7118 14.0882 35.6644 12.1355C37.617 10.1829 40.7829 10.1829 42.7355 12.1355C44.5282 13.9283 44.675 16.7437 43.1758 18.7039L46.7425 22.2706L45.7997 23.2134L42.2331 19.6468Z" fill="white"/>
</svg>
