<?xml version="1.0" encoding="iso-8859-1"?>
<!-- Generator: Adobe Illustrator 19.0.0, SVG Export Plug-In . SVG Version: 6.00 Build 0)  -->
<svg version="1.1" id="Capa_1" xmlns="http://www.w3.org/2000/svg" xmlns:xlink="http://www.w3.org/1999/xlink" x="0px" y="0px"
	 viewBox="0 0 54 54" style="enable-background:new 0 0 54 54;" xml:space="preserve">
<g>
	<g>
		<path d="M27,0C12.112,0,0,12.112,0,27s12.112,27,27,27s27-12.112,27-27S41.888,0,27,0z M27,52C13.215,52,2,40.785,2,27
			S13.215,2,27,2s25,11.215,25,25S40.785,52,27,52z"/>
		<path d="M27.707,18.935c-0.391-0.391-1.023-0.391-1.414,0l-10.5,10.5c-0.391,0.391-0.391,1.023,0,1.414s1.023,0.391,1.414,0
			L27,21.056l9.793,9.793c0.195,0.195,0.451,0.293,0.707,0.293s0.512-0.098,0.707-0.293c0.391-0.391,0.391-1.023,0-1.414
			L27.707,18.935z"/>
	</g>
</g>
<g>
</g>
<g>
</g>
<g>
</g>
<g>
</g>
<g>
</g>
<g>
</g>
<g>
</g>
<g>
</g>
<g>
</g>
<g>
</g>
<g>
</g>
<g>
</g>
<g>
</g>
<g>
</g>
<g>
</g>
</svg>
